# xmcd
#
# Track frame offsets:
#	150
#	15010
#	36232
#	54460
#	70060
#	81157
#	93760
#	105385
#	120835
#	134785
#	149560
#	164635
#	183682
#	198757
#	213382
#	227260
#
# Disc length: 3223 seconds
#
# Revision: 1
# Processed by: cddbd v1.5.1PL0 Copyright (c) Steve Scherf et al.
# Submitted via: audiograbber 1.83.01
#
DISCID=d10c9510
DTITLE=Marvin Gaye - LG035
DYEAR=1900
DGENRE=
TTITLE0=I Heard It Through The Grapevine
TTITLE1=Secual Healing
TTITLE2=What's Goin' On
TTITLE3=Mercy Mercy Me
TTITLE4=Pride and Joy
TTITLE5=Ain't No Mountain High Enough
TTITLE6=Ain't Nothing Like The Real Thing
TTITLE7=It Takes Two
TTITLE8=You're All I Need To Get By
TTITLE9=Onion Song, The
TTITLE10=Your Prescious Love
TTITLE11=Let's Get It On
TTITLE12=Ain't That Peculiar
TTITLE13=How Sweet It Is
TTITLE14=Can I Get A Witness
TTITLE15=Lucky Lucky Me
EXTD=
EXTT0=
EXTT1=
EXTT2=
EXTT3=
EXTT4=
EXTT5=
EXTT6=
EXTT7=
EXTT8=
EXTT9=
EXTT10=
EXTT11=
EXTT12=
EXTT13=
EXTT14=
EXTT15=
PLAYORDER=
